ffmpeg started on 2026-01-16 at 16:22:32
Report written to "D:\Convert\FFMetrics\reports\ssim_report-6.txt"
Log level: 32
Command line:
ffmpeg -hide_banner -nostdin -r 24000/1001 -i "F:\\Convert\\files\\[DC] Make Heroine ga Oosugiru - 07_Telegram_HEVC(HB-14).mkv" -r 24000/1001 -i "F:\\Convert\\files\\[DC] Make Heroine ga Oosugiru - 07_Telegram.mp4" -lavfi "[0:v]settb=AVTB,setpts=PTS-STARTPTS,format=pix_fmts=yuv420p10le,fps=24000/1001,scale=1920:1080:flags=lanczos:param0=3:out_range=limited:out_color_matrix=bt709:out_chroma_loc=left,setsar=1/1,setdar=(1920/1080)*(1/1),colorspace=format=yuv420p10:range=tv:primaries=bt709:trc=bt709:space=bt709:fast=0[main];[1:v]settb=AVTB,setpts=PTS-STARTPTS,format=pix_fmts=yuv420p,fps=24000/1001,scale=1920:1080:flags=lanczos:param0=3:out_range=limited:out_color_matrix=bt709:out_chroma_loc=left,setsar=1.000,setdar=1.778,colorspace=format=yuv420p:range=tv:primaries=bt709:trc=bt709:space=bt709:fast=0[ref];[main][ref]ssim=eof_action=endall:stats_file='D\\:/Convert/FFMetrics/logs/ssim_logfile-6.txt'" -f null -
Input #0, matroska,webm, from 'F:\Convert\files\[DC] Make Heroine ga Oosugiru - 07_Telegram_HEVC(HB-14).mkv':
  Metadata:
    creation_time   : 2026-01-16T10:20:03.000000Z
    ENCODER         : Lavf61.7.100
  Duration: 00:24:06.81, start: -0.021000, bitrate: 1329 kb/s
  Stream #0:0: Video: hevc (Main 10), yuv420p10le(tv, bt709), 1920x1080 [SAR 1:1 DAR 16:9], 23.98 fps, 23.98 tbr, 1k tbn (default)
      Metadata:
        BPS             : 1164603
        DURATION        : 00:24:06.569708333
        NUMBER_OF_FRAMES: 34683
        NUMBER_OF_BYTES : 210584907
        _STATISTICS_WRITING_APP: mkvpropedit v94.0 ('Initiate') 64-bit
        _STATISTICS_WRITING_DATE_UTC: 2026-01-16 13:20:54
        _STATISTICS_TAGS: BPS DURATION NUMBER_OF_FRAMES NUMBER_OF_BYTES
  Stream #0:1: Audio: aac (LC), 48000 Hz, stereo, fltp (default)
      Metadata:
        title           : Stereo
        BPS             : 161191
        DURATION        : 00:24:06.784000000
        NUMBER_OF_FRAMES: 67819
        NUMBER_OF_BYTES : 29151109
        _STATISTICS_WRITING_APP: mkvpropedit v94.0 ('Initiate') 64-bit
        _STATISTICS_WRITING_DATE_UTC: 2026-01-16 13:20:54
        _STATISTICS_TAGS: BPS DURATION NUMBER_OF_FRAMES NUMBER_OF_BYTES
Input #1, mov,mp4,m4a,3gp,3g2,mj2, from 'F:\Convert\files\[DC] Make Heroine ga Oosugiru - 07_Telegram.mp4':
  Metadata:
    major_brand     : isom
    minor_version   : 512
    compatible_brands: isomiso2avc1mp41
    encoder         : Lavf60.16.100
  Duration: 00:24:06.74, start: 0.000000, bitrate: 3764 kb/s
  Stream #1:0[0x1](und): Video: h264 (High) (avc1 / 0x31637661), yuv420p(tv, bt709, progressive), 1920x1080 [SAR 1:1 DAR 16:9], 3616 kb/s, 23.98 fps, 23.98 tbr, 24k tbn (default)
      Metadata:
        handler_name    : VideoHandler
        vendor_id       : [0][0][0][0]
        encoder         : Lavc60.31.102 h264_qsv
  Stream #1:1[0x2](und): Audio: aac (HE-AACv2) (mp4a / 0x6134706D), 48000 Hz, stereo, fltp, 144 kb/s (default)
      Metadata:
        handler_name    : SoundHandler
        vendor_id       : [0][0][0][0]
Stream mapping:
  Stream #0:0 (hevc) -> settb:default
  Stream #1:0 (h264) -> settb:default
  ssim:default -> Stream #0:0 (wrapped_avframe)
  Stream #0:1 -> #0:1 (aac (native) -> pcm_s16le (native))
Output #0, null, to 'pipe:':
  Metadata:
    encoder         : Lavf61.7.100
  Stream #0:0: Video: wrapped_avframe, yuv420p10le(tv, bt709, progressive), 1920x1080 [SAR 1:1 DAR 16:9], q=2-31, 200 kb/s, 23.98 fps, 23.98 tbn
      Metadata:
        encoder         : Lavc61.19.100 wrapped_avframe
  Stream #0:1: Audio: pcm_s16le, 48000 Hz, stereo, s16, 1536 kb/s (default)
      Metadata:
        title           : Stereo
        BPS             : 161191
        DURATION        : 00:24:06.784000000
        NUMBER_OF_FRAMES: 67819
        NUMBER_OF_BYTES : 29151109
        _STATISTICS_WRITING_APP: mkvpropedit v94.0 ('Initiate') 64-bit
        _STATISTICS_WRITING_DATE_UTC: 2026-01-16 13:20:54
        _STATISTICS_TAGS: BPS DURATION NUMBER_OF_FRAMES NUMBER_OF_BYTES
        encoder         : Lavc61.19.100 pcm_s16le
frame=  124 fps=0.0 q=-0.0 size=N/A time=00:00:05.17 bitrate=N/A speed=9.94x    frame=  306 fps=296 q=-0.0 size=N/A time=00:00:12.76 bitrate=N/A speed=12.4x    frame=  494 fps=320 q=-0.0 size=N/A time=00:00:20.60 bitrate=N/A speed=13.3x    frame=  687 fps=332 q=-0.0 size=N/A time=00:00:28.65 bitrate=N/A speed=13.8x    frame=  874 fps=339 q=-0.0 size=N/A time=00:00:36.45 bitrate=N/A speed=14.1x    frame= 1002 fps=324 q=-0.0 size=N/A time=00:00:41.79 bitrate=N/A speed=13.5x    frame= 1170 fps=324 q=-0.0 size=N/A time=00:00:48.79 bitrate=N/A speed=13.5x    frame= 1332 fps=322 q=-0.0 size=N/A time=00:00:55.55 bitrate=N/A speed=13.4x    frame= 1499 fps=323 q=-0.0 size=N/A time=00:01:02.52 bitrate=N/A speed=13.5x    frame= 1646 fps=319 q=-0.0 size=N/A time=00:01:08.65 bitrate=N/A speed=13.3x    frame= 1803 fps=318 q=-0.0 size=N/A time=00:01:15.20 bitrate=N/A speed=13.3x    frame= 1963 fps=317 q=-0.0 size=N/A time=00:01:21.87 bitrate=N/A speed=13.2x    frame= 2091 fps=312 q=-0.0 size=N/A time=00:01:27.21 bitrate=N/A speed=  13x    frame= 2240 fps=310 q=-0.0 size=N/A time=00:01:33.42 bitrate=N/A speed=12.9x    frame= 2400 fps=310 q=-0.0 size=N/A time=00:01:40.10 bitrate=N/A speed=12.9x    frame= 2525 fps=306 q=-0.0 size=N/A time=00:01:45.31 bitrate=N/A speed=12.8x    frame= 2696 fps=307 q=-0.0 size=N/A time=00:01:52.44 bitrate=N/A speed=12.8x    frame= 2867 fps=309 q=-0.0 size=N/A time=00:01:59.57 bitrate=N/A speed=12.9x    frame= 3042 fps=310 q=-0.0 size=N/A time=00:02:06.87 bitrate=N/A speed=12.9x    frame= 3225 fps=312 q=-0.0 size=N/A time=00:02:14.50 bitrate=N/A speed=  13x    frame= 3418 fps=316 q=-0.0 size=N/A time=00:02:22.55 bitrate=N/A speed=13.2x    frame= 3607 fps=318 q=-0.0 size=N/A time=00:02:30.44 bitrate=N/A speed=13.3x    frame= 3798 fps=320 q=-0.0 size=N/A time=00:02:38.40 bitrate=N/A speed=13.3x    frame= 3984 fps=322 q=-0.0 size=N/A time=00:02:46.16 bitrate=N/A speed=13.4x    frame= 4170 fps=323 q=-0.0 size=N/A time=00:02:53.92 bitrate=N/A speed=13.5x    frame= 4356 fps=325 q=-0.0 size=N/A time=00:03:01.68 bitrate=N/A speed=13.6x    frame= 4552 fps=327 q=-0.0 size=N/A time=00:03:09.85 bitrate=N/A speed=13.6x    frame= 4739 fps=328 q=-0.0 size=N/A time=00:03:17.65 bitrate=N/A speed=13.7x    frame= 4922 fps=329 q=-0.0 size=N/A time=00:03:25.28 bitrate=N/A speed=13.7x    frame= 5106 fps=330 q=-0.0 size=N/A time=00:03:32.96 bitrate=N/A speed=13.8x    frame= 5294 fps=331 q=-0.0 size=N/A time=00:03:40.80 bitrate=N/A speed=13.8x    frame= 5484 fps=332 q=-0.0 size=N/A time=00:03:48.72 bitrate=N/A speed=13.9x    frame= 5675 fps=333 q=-0.0 size=N/A time=00:03:56.69 bitrate=N/A speed=13.9x    frame= 5862 fps=334 q=-0.0 size=N/A time=00:04:04.49 bitrate=N/A speed=13.9x    frame= 6052 fps=335 q=-0.0 size=N/A time=00:04:12.41 bitrate=N/A speed=  14x    frame= 6239 fps=336 q=-0.0 size=N/A time=00:04:20.21 bitrate=N/A speed=  14x    frame= 6423 fps=337 q=-0.0 size=N/A time=00:04:27.89 bitrate=N/A speed=  14x    frame= 6614 fps=338 q=-0.0 size=N/A time=00:04:35.85 bitrate=N/A speed=14.1x    frame= 6806 fps=338 q=-0.0 size=N/A time=00:04:43.86 bitrate=N/A speed=14.1x    frame= 6993 fps=339 q=-0.0 size=N/A time=00:04:51.66 bitrate=N/A speed=14.1x    frame= 7166 fps=339 q=-0.0 size=N/A time=00:04:58.88 bitrate=N/A speed=14.1x    frame= 7357 fps=340 q=-0.0 size=N/A time=00:05:06.84 bitrate=N/A speed=14.2x    frame= 7543 fps=340 q=-0.0 size=N/A time=00:05:14.60 bitrate=N/A speed=14.2x    frame= 7725 fps=340 q=-0.0 size=N/A time=00:05:22.19 bitrate=N/A speed=14.2x    frame= 7912 fps=341 q=-0.0 size=N/A time=00:05:29.99 bitrate=N/A speed=14.2x    frame= 8094 fps=341 q=-0.0 size=N/A time=00:05:37.58 bitrate=N/A speed=14.2x    frame= 8287 fps=342 q=-0.0 size=N/A time=00:05:45.63 bitrate=N/A speed=14.2x    frame= 8476 fps=342 q=-0.0 size=N/A time=00:05:53.51 bitrate=N/A speed=14.3x    frame= 8659 fps=342 q=-0.0 size=N/A time=00:06:01.15 bitrate=N/A speed=14.3x    frame= 8844 fps=343 q=-0.0 size=N/A time=00:06:08.86 bitrate=N/A speed=14.3x    frame= 9031 fps=343 q=-0.0 size=N/A time=00:06:16.66 bitrate=N/A speed=14.3x    frame= 9220 fps=344 q=-0.0 size=N/A time=00:06:24.55 bitrate=N/A speed=14.3x    frame= 9403 fps=344 q=-0.0 size=N/A time=00:06:32.18 bitrate=N/A speed=14.3x    frame= 9582 fps=344 q=-0.0 size=N/A time=00:06:39.64 bitrate=N/A speed=14.3x    frame= 9769 fps=344 q=-0.0 size=N/A time=00:06:47.44 bitrate=N/A speed=14.4x    frame= 9961 fps=345 q=-0.0 size=N/A time=00:06:55.45 bitrate=N/A speed=14.4x    frame=10141 fps=345 q=-0.0 size=N/A time=00:07:02.96 bitrate=N/A speed=14.4x    frame=10329 fps=345 q=-0.0 size=N/A time=00:07:10.80 bitrate=N/A speed=14.4x    frame=10504 fps=345 q=-0.0 size=N/A time=00:07:18.10 bitrate=N/A speed=14.4x    frame=10695 fps=345 q=-0.0 size=N/A time=00:07:26.07 bitrate=N/A speed=14.4x    frame=10880 fps=346 q=-0.0 size=N/A time=00:07:33.78 bitrate=N/A speed=14.4x    frame=11067 fps=346 q=-0.0 size=N/A time=00:07:41.58 bitrate=N/A speed=14.4x    frame=11247 fps=346 q=-0.0 size=N/A time=00:07:49.09 bitrate=N/A speed=14.4x    frame=11437 fps=346 q=-0.0 size=N/A time=00:07:57.01 bitrate=N/A speed=14.4x    frame=11622 fps=347 q=-0.0 size=N/A time=00:08:04.73 bitrate=N/A speed=14.5x    frame=11809 fps=347 q=-0.0 size=N/A time=00:08:12.53 bitrate=N/A speed=14.5x    frame=11993 fps=347 q=-0.0 size=N/A time=00:08:20.20 bitrate=N/A speed=14.5x    frame=12187 fps=347 q=-0.0 size=N/A time=00:08:28.29 bitrate=N/A speed=14.5x    frame=12368 fps=347 q=-0.0 size=N/A time=00:08:35.84 bitrate=N/A speed=14.5x    frame=12560 fps=348 q=-0.0 size=N/A time=00:08:43.85 bitrate=N/A speed=14.5x    frame=12742 fps=348 q=-0.0 size=N/A time=00:08:51.44 bitrate=N/A speed=14.5x    frame=12934 fps=348 q=-0.0 size=N/A time=00:08:59.45 bitrate=N/A speed=14.5x    frame=13113 fps=348 q=-0.0 size=N/A time=00:09:06.92 bitrate=N/A speed=14.5x    frame=13303 fps=348 q=-0.0 size=N/A time=00:09:14.84 bitrate=N/A speed=14.5x    frame=13484 fps=349 q=-0.0 size=N/A time=00:09:22.39 bitrate=N/A speed=14.5x    frame=13677 fps=349 q=-0.0 size=N/A time=00:09:30.44 bitrate=N/A speed=14.5x    frame=13862 fps=349 q=-0.0 size=N/A time=00:09:38.16 bitrate=N/A speed=14.6x    frame=14047 fps=349 q=-0.0 size=N/A time=00:09:45.87 bitrate=N/A speed=14.6x    frame=14221 fps=349 q=-0.0 size=N/A time=00:09:53.13 bitrate=N/A speed=14.6x    frame=14409 fps=349 q=-0.0 size=N/A time=00:10:00.97 bitrate=N/A speed=14.6x    frame=14597 fps=349 q=-0.0 size=N/A time=00:10:08.81 bitrate=N/A speed=14.6x    frame=14777 fps=349 q=-0.0 size=N/A time=00:10:16.32 bitrate=N/A speed=14.6x    frame=14959 fps=349 q=-0.0 size=N/A time=00:10:23.91 bitrate=N/A speed=14.6x    frame=15136 fps=349 q=-0.0 size=N/A time=00:10:31.29 bitrate=N/A speed=14.6x    frame=15316 fps=349 q=-0.0 size=N/A time=00:10:38.80 bitrate=N/A speed=14.6x    frame=15503 fps=349 q=-0.0 size=N/A time=00:10:46.60 bitrate=N/A speed=14.6x    frame=15690 fps=350 q=-0.0 size=N/A time=00:10:54.40 bitrate=N/A speed=14.6x    frame=15875 fps=350 q=-0.0 size=N/A time=00:11:02.11 bitrate=N/A speed=14.6x    frame=16067 fps=350 q=-0.0 size=N/A time=00:11:10.12 bitrate=N/A speed=14.6x    frame=16256 fps=350 q=-0.0 size=N/A time=00:11:18.01 bitrate=N/A speed=14.6x    frame=16440 fps=350 q=-0.0 size=N/A time=00:11:25.68 bitrate=N/A speed=14.6x    frame=16629 fps=350 q=-0.0 size=N/A time=00:11:33.56 bitrate=N/A speed=14.6x    frame=16815 fps=350 q=-0.0 size=N/A time=00:11:41.32 bitrate=N/A speed=14.6x    frame=17006 fps=351 q=-0.0 size=N/A time=00:11:49.29 bitrate=N/A speed=14.6x    frame=17191 fps=351 q=-0.0 size=N/A time=00:11:57.00 bitrate=N/A speed=14.6x    frame=17378 fps=351 q=-0.0 size=N/A time=00:12:04.80 bitrate=N/A speed=14.6x    frame=17566 fps=351 q=-0.0 size=N/A time=00:12:12.64 bitrate=N/A speed=14.6x    frame=17749 fps=351 q=-0.0 size=N/A time=00:12:20.28 bitrate=N/A speed=14.6x    frame=17935 fps=351 q=-0.0 size=N/A time=00:12:28.03 bitrate=N/A speed=14.6x    frame=18125 fps=351 q=-0.0 size=N/A time=00:12:35.96 bitrate=N/A speed=14.7x    frame=18301 fps=351 q=-0.0 size=N/A time=00:12:43.30 bitrate=N/A speed=14.6x    frame=18479 fps=351 q=-0.0 size=N/A time=00:12:50.72 bitrate=N/A speed=14.6x    frame=18672 fps=351 q=-0.0 size=N/A time=00:12:58.77 bitrate=N/A speed=14.7x    frame=18858 fps=352 q=-0.0 size=N/A time=00:13:06.53 bitrate=N/A speed=14.7x    frame=19038 fps=351 q=-0.0 size=N/A time=00:13:14.04 bitrate=N/A speed=14.7x    frame=19228 fps=352 q=-0.0 size=N/A time=00:13:21.96 bitrate=N/A speed=14.7x    frame=19414 fps=352 q=-0.0 size=N/A time=00:13:29.72 bitrate=N/A speed=14.7x    frame=19606 fps=352 q=-0.0 size=N/A time=00:13:37.73 bitrate=N/A speed=14.7x    frame=19794 fps=352 q=-0.0 size=N/A time=00:13:45.57 bitrate=N/A speed=14.7x    frame=19980 fps=352 q=-0.0 size=N/A time=00:13:53.33 bitrate=N/A speed=14.7x    frame=20169 fps=352 q=-0.0 size=N/A time=00:14:01.21 bitrate=N/A speed=14.7x    frame=20352 fps=352 q=-0.0 size=N/A time=00:14:08.84 bitrate=N/A speed=14.7x    frame=20539 fps=352 q=-0.0 size=N/A time=00:14:16.64 bitrate=N/A speed=14.7x    frame=20721 fps=352 q=-0.0 size=N/A time=00:14:24.23 bitrate=N/A speed=14.7x    frame=20906 fps=352 q=-0.0 size=N/A time=00:14:31.95 bitrate=N/A speed=14.7x    frame=21094 fps=353 q=-0.0 size=N/A time=00:14:39.79 bitrate=N/A speed=14.7x    frame=21279 fps=353 q=-0.0 size=N/A time=00:14:47.51 bitrate=N/A speed=14.7x    frame=21459 fps=353 q=-0.0 size=N/A time=00:14:55.01 bitrate=N/A speed=14.7x    frame=21650 fps=353 q=-0.0 size=N/A time=00:15:02.98 bitrate=N/A speed=14.7x    frame=21842 fps=353 q=-0.0 size=N/A time=00:15:10.99 bitrate=N/A speed=14.7x    frame=22037 fps=353 q=-0.0 size=N/A time=00:15:19.12 bitrate=N/A speed=14.7x    frame=22222 fps=353 q=-0.0 size=N/A time=00:15:26.84 bitrate=N/A speed=14.7x    frame=22410 fps=353 q=-0.0 size=N/A time=00:15:34.68 bitrate=N/A speed=14.7x    frame=22601 fps=353 q=-0.0 size=N/A time=00:15:42.65 bitrate=N/A speed=14.7x    frame=22785 fps=353 q=-0.0 size=N/A time=00:15:50.32 bitrate=N/A speed=14.7x    frame=22958 fps=353 q=-0.0 size=N/A time=00:15:57.53 bitrate=N/A speed=14.7x    frame=23149 fps=353 q=-0.0 size=N/A time=00:16:05.50 bitrate=N/A speed=14.7x    frame=23330 fps=353 q=-0.0 size=N/A time=00:16:13.05 bitrate=N/A speed=14.7x    frame=23519 fps=353 q=-0.0 size=N/A time=00:16:20.93 bitrate=N/A speed=14.7x    frame=23706 fps=354 q=-0.0 size=N/A time=00:16:28.73 bitrate=N/A speed=14.7x    frame=23895 fps=354 q=-0.0 size=N/A time=00:16:36.62 bitrate=N/A speed=14.8x    frame=24084 fps=354 q=-0.0 size=N/A time=00:16:44.50 bitrate=N/A speed=14.8x    frame=24270 fps=354 q=-0.0 size=N/A time=00:16:52.26 bitrate=N/A speed=14.8x    frame=24455 fps=354 q=-0.0 size=N/A time=00:16:59.97 bitrate=N/A speed=14.8x    frame=24644 fps=354 q=-0.0 size=N/A time=00:17:07.86 bitrate=N/A speed=14.8x    frame=24830 fps=354 q=-0.0 size=N/A time=00:17:15.61 bitrate=N/A speed=14.8x    frame=25024 fps=354 q=-0.0 size=N/A time=00:17:23.70 bitrate=N/A speed=14.8x    frame=25211 fps=354 q=-0.0 size=N/A time=00:17:31.50 bitrate=N/A speed=14.8x    frame=25400 fps=354 q=-0.0 size=N/A time=00:17:39.39 bitrate=N/A speed=14.8x    frame=25580 fps=354 q=-0.0 size=N/A time=00:17:46.89 bitrate=N/A speed=14.8x    frame=25766 fps=354 q=-0.0 size=N/A time=00:17:54.65 bitrate=N/A speed=14.8x    frame=25964 fps=354 q=-0.0 size=N/A time=00:18:02.91 bitrate=N/A speed=14.8x    frame=26155 fps=355 q=-0.0 size=N/A time=00:18:10.88 bitrate=N/A speed=14.8x    frame=26337 fps=355 q=-0.0 size=N/A time=00:18:18.47 bitrate=N/A speed=14.8x    frame=26529 fps=355 q=-0.0 size=N/A time=00:18:26.48 bitrate=N/A speed=14.8x    frame=26722 fps=355 q=-0.0 size=N/A time=00:18:34.53 bitrate=N/A speed=14.8x    frame=26900 fps=355 q=-0.0 size=N/A time=00:18:41.95 bitrate=N/A speed=14.8x    frame=27076 fps=355 q=-0.0 size=N/A time=00:18:49.29 bitrate=N/A speed=14.8x    frame=27251 fps=355 q=-0.0 size=N/A time=00:18:56.59 bitrate=N/A speed=14.8x    frame=27435 fps=355 q=-0.0 size=N/A time=00:19:04.26 bitrate=N/A speed=14.8x    frame=27611 fps=354 q=-0.0 size=N/A time=00:19:11.60 bitrate=N/A speed=14.8x    frame=27792 fps=354 q=-0.0 size=N/A time=00:19:19.15 bitrate=N/A speed=14.8x    frame=27973 fps=354 q=-0.0 size=N/A time=00:19:26.70 bitrate=N/A speed=14.8x    frame=28159 fps=354 q=-0.0 size=N/A time=00:19:34.46 bitrate=N/A speed=14.8x    frame=28343 fps=354 q=-0.0 size=N/A time=00:19:42.13 bitrate=N/A speed=14.8x    frame=28529 fps=355 q=-0.0 size=N/A time=00:19:49.89 bitrate=N/A speed=14.8x    frame=28703 fps=354 q=-0.0 size=N/A time=00:19:57.15 bitrate=N/A speed=14.8x    frame=28882 fps=354 q=-0.0 size=N/A time=00:20:04.62 bitrate=N/A speed=14.8x    frame=29049 fps=354 q=-0.0 size=N/A time=00:20:11.58 bitrate=N/A speed=14.8x    frame=29226 fps=354 q=-0.0 size=N/A time=00:20:18.96 bitrate=N/A speed=14.8x    frame=29402 fps=354 q=-0.0 size=N/A time=00:20:26.30 bitrate=N/A speed=14.8x    frame=29568 fps=354 q=-0.0 size=N/A time=00:20:33.23 bitrate=N/A speed=14.8x    frame=29744 fps=354 q=-0.0 size=N/A time=00:20:40.57 bitrate=N/A speed=14.8x    frame=29919 fps=354 q=-0.0 size=N/A time=00:20:47.87 bitrate=N/A speed=14.8x    frame=30081 fps=353 q=-0.0 size=N/A time=00:20:54.62 bitrate=N/A speed=14.7x    frame=30268 fps=353 q=-0.0 size=N/A time=00:21:02.42 bitrate=N/A speed=14.7x    frame=30456 fps=354 q=-0.0 size=N/A time=00:21:10.26 bitrate=N/A speed=14.7x    frame=30645 fps=354 q=-0.0 size=N/A time=00:21:18.15 bitrate=N/A speed=14.7x    frame=30829 fps=354 q=-0.0 size=N/A time=00:21:25.82 bitrate=N/A speed=14.8x    frame=31019 fps=354 q=-0.0 size=N/A time=00:21:33.75 bitrate=N/A speed=14.8x    frame=31203 fps=354 q=-0.0 size=N/A time=00:21:41.42 bitrate=N/A speed=14.8x    frame=31384 fps=354 q=-0.0 size=N/A time=00:21:48.97 bitrate=N/A speed=14.8x    frame=31572 fps=354 q=-0.0 size=N/A time=00:21:56.81 bitrate=N/A speed=14.8x    frame=31750 fps=354 q=-0.0 size=N/A time=00:22:04.23 bitrate=N/A speed=14.8x    frame=31932 fps=354 q=-0.0 size=N/A time=00:22:11.83 bitrate=N/A speed=14.8x    frame=32112 fps=354 q=-0.0 size=N/A time=00:22:19.33 bitrate=N/A speed=14.8x    frame=32298 fps=354 q=-0.0 size=N/A time=00:22:27.09 bitrate=N/A speed=14.8x    frame=32478 fps=354 q=-0.0 size=N/A time=00:22:34.60 bitrate=N/A speed=14.8x    frame=32655 fps=354 q=-0.0 size=N/A time=00:22:41.98 bitrate=N/A speed=14.8x    frame=32801 fps=353 q=-0.0 size=N/A time=00:22:48.07 bitrate=N/A speed=14.7x    frame=32962 fps=353 q=-0.0 size=N/A time=00:22:54.79 bitrate=N/A speed=14.7x    frame=33144 fps=353 q=-0.0 size=N/A time=00:23:02.38 bitrate=N/A speed=14.7x    frame=33321 fps=353 q=-0.0 size=N/A time=00:23:09.76 bitrate=N/A speed=14.7x    frame=33483 fps=353 q=-0.0 size=N/A time=00:23:16.52 bitrate=N/A speed=14.7x    frame=33633 fps=352 q=-0.0 size=N/A time=00:23:22.77 bitrate=N/A speed=14.7x    frame=33763 fps=352 q=-0.0 size=N/A time=00:23:28.19 bitrate=N/A speed=14.7x    frame=33892 fps=351 q=-0.0 size=N/A time=00:23:33.57 bitrate=N/A speed=14.7x    frame=34045 fps=351 q=-0.0 size=N/A time=00:23:39.96 bitrate=N/A speed=14.6x    frame=34189 fps=351 q=-0.0 size=N/A time=00:23:45.96 bitrate=N/A speed=14.6x    frame=34328 fps=350 q=-0.0 size=N/A time=00:23:51.76 bitrate=N/A speed=14.6x    frame=34458 fps=350 q=-0.0 size=N/A time=00:23:57.18 bitrate=N/A speed=14.6x    frame=34626 fps=350 q=-0.0 size=N/A time=00:24:04.19 bitrate=N/A speed=14.6x    [Parsed_ssim_16 @ 0000018e1b041b80] SSIM Y:0.994319 (22.455413) U:0.994115 (22.302881) V:0.993819 (22.089244) All:0.994201 (22.366776)
[out#0/null @ 0000018e0e2e1d00] video:14903KiB audio:271276KiB subtitle:0KiB other streams:0KiB global headers:0KiB muxing overhead: unknown
frame=34683 fps=350 q=-0.0 Lsize=N/A time=00:24:06.57 bitrate=N/A speed=14.6x    
